<svg viewBox="0 0 100 150">
    <!-- <rect x="0" y="0" width="100" height="150" fill="#e0e0e0"/> -->

    <path d="M 12.5,90 l 0,35 m 25,-35 l 0,35 m 25,-35 l 0,35 m 25,-35 l 0,35" fill="none" stroke="#181818" stroke-width="5"/>

    <rect x="2" y="2" width="96" height="96" fill="#2d2d2d" stroke="#181818" stroke-width="3" stroke-linejoin="round" rx="4"/>
    <rect x="10" y="10" width="80" height="80" fill="#121212" rx="2"/>

    <path d="M 30.335,84.67500000000001 L 30.335,15.325000000000003 L 50.0,15.325000000000003 Q 59.5,15.325000000000003 64.8675,20.075000000000003 Q 70.235,24.825000000000003 70.235,33.28000000000001 Q 70.235,38.6 66.8625,42.87500000000001 Q 63.49,47.150000000000006 58.075,48.19500000000001 L 58.075,48.480000000000004 Q 62.160000000000004,48.955000000000005 65.2475,51.330000000000005 Q 68.33500000000001,53.705000000000005 70.0925,57.362500000000004 Q 71.85,61.02 71.85,65.39000000000001 Q 71.85,74.32 66.3875,79.4975 Q 60.925,84.67500000000001 51.425,84.67500000000001 Z M 38.695,44.870000000000005 L 49.905,44.870000000000005 Q 55.415,44.870000000000005 58.597500000000004,41.925000000000004 Q 61.78,38.980000000000004 61.78,33.94500000000001 Q 61.78,28.910000000000004 58.645,25.965000000000003 Q 55.51,23.020000000000003 50.0,23.020000000000003 L 38.695,23.020000000000003 Z M 38.695,76.98000000000002 L 50.475,76.98000000000002 Q 56.46,76.98000000000002 59.9275,73.79750000000001 Q 63.395,70.61500000000001 63.395,65.10500000000002 Q 63.395,59.40500000000001 59.9275,55.84250000000001 Q 56.46,52.28000000000001 50.475,52.28000000000001 L 38.695,52.28000000000001 Z " fill="#e5e5e5"/>
</svg>