<svg viewBox="0 0 100 150">
    <!-- <rect x="0" y="0" width="100" height="150" fill="#e0e0e0"/> -->

    <path d="M 12.5,90 l 0,35 m 25,-35 l 0,35 m 25,-35 l 0,35 m 25,-35 l 0,35" fill="none" stroke="#181818" stroke-width="5"/>

    <rect x="2" y="2" width="96" height="96" fill="#2d2d2d" stroke="#181818" stroke-width="3" stroke-linejoin="round" rx="4"/>
    <rect x="10" y="10" width="80" height="80" fill="#121212" rx="2"/>

    <path d="M 50.0,85.625 Q 43.445,85.625 38.41,83.06 Q 33.375,80.495 30.572499999999998,75.8875 Q 27.77,71.28 27.77,65.295 Q 27.77,58.739999999999995 31.5225,53.989999999999995 Q 35.275,49.239999999999995 41.545,48.19500000000001 L 41.545,47.91 Q 36.13,46.675 32.9,42.447500000000005 Q 29.67,38.22 29.67,32.71000000000001 Q 29.67,27.294999999999998 32.235,23.162499999999998 Q 34.8,19.03 39.4075,16.7025 Q 44.015,14.375 50.0,14.375 Q 56.08,14.375 60.64,16.7025 Q 65.2,19.03 67.765,23.162499999999998 Q 70.33,27.294999999999998 70.33,32.71000000000001 Q 70.33,38.22 67.1,42.447500000000005 Q 63.87,46.675 58.455,47.91 L 58.455,48.19500000000001 Q 64.725,49.239999999999995 68.47749999999999,53.989999999999995 Q 72.23,58.739999999999995 72.23,65.295 Q 72.23,71.28 69.42750000000001,75.8875 Q 66.625,80.495 61.6375,83.06 Q 56.65,85.625 50.0,85.625 Z M 50.0,44.58500000000001 Q 55.32,44.58500000000001 58.55,41.45 Q 61.78,38.315 61.78,33.28 Q 61.78,28.245 58.55,25.110000000000003 Q 55.32,21.974999999999998 50.0,21.974999999999998 Q 44.775,21.974999999999998 41.4975,25.110000000000003 Q 38.22,28.245 38.22,33.28 Q 38.22,38.315 41.4975,41.45 Q 44.775,44.58500000000001 50.0,44.58500000000001 Z M 50.0,77.92999999999999 Q 56.08,77.92999999999999 59.88,74.36749999999999 Q 63.68,70.80499999999999 63.68,65.105 Q 63.68,59.31 59.88,55.7475 Q 56.08,52.185 50.0,52.185 Q 43.92,52.185 40.120000000000005,55.7475 Q 36.32,59.31 36.32,65.105 Q 36.32,70.80499999999999 40.120000000000005,74.36749999999999 Q 43.92,77.92999999999999 50.0,77.92999999999999 Z " fill="#e5e5e5"/>
</svg>