<svg viewBox="0 0 100 150">
    <!-- <rect x="0" y="0" width="100" height="150" fill="#e0e0e0"/> -->

    <path d="M 12.5,90 l 0,35 m 25,-35 l 0,35 m 25,-35 l 0,35 m 25,-35 l 0,35" fill="none" stroke="#181818" stroke-width="5"/>

    <rect x="2" y="2" width="96" height="96" fill="#2d2d2d" stroke="#181818" stroke-width="3" stroke-linejoin="round" rx="4"/>
    <rect x="10" y="10" width="80" height="80" fill="#121212" rx="2"/>

    <path d="M 48.955,85.15 Q 39.36,85.15 33.755,79.7825 Q 28.15,74.41499999999999 28.15,65.19999999999999 L 36.7,65.19999999999999 Q 36.7,70.9 40.025,74.225 Q 43.35,77.54999999999998 49.05,77.54999999999998 Q 54.75,77.54999999999998 58.075,74.225 Q 61.4,70.9 61.4,65.19999999999999 L 61.4,60.449999999999996 Q 61.4,54.74999999999999 58.075,51.425 Q 54.75,48.099999999999994 49.05,48.099999999999994 L 41.545,48.099999999999994 L 41.545,40.69 L 58.55,22.639999999999993 L 30.05,22.639999999999993 L 30.05,14.849999999999994 L 68.24000000000001,14.849999999999994 L 68.24000000000001,22.83 L 51.519999999999996,40.595 Q 60.07,41.26 65.00999999999999,46.5325 Q 69.95,51.805 69.95,60.449999999999996 L 69.95,65.19999999999999 Q 69.95,74.41499999999999 64.2975,79.7825 Q 58.645,85.15 48.955,85.15 Z " fill="#e5e5e5"/>
</svg>