<svg viewBox="0 0 100 150">
    <!-- <rect x="0" y="0" width="100" height="150" fill="#e0e0e0"/> -->

    <path d="M 12.5,90 l 0,35 m 25,-35 l 0,35 m 25,-35 l 0,35 m 25,-35 l 0,35" fill="none" stroke="#181818" stroke-width="5"/>

    <rect x="2" y="2" width="96" height="96" fill="#2d2d2d" stroke="#181818" stroke-width="3" stroke-linejoin="round" rx="4"/>
    <rect x="10" y="10" width="80" height="80" fill="#121212" rx="2"/>

    <path d="M 40.025,85.15 L 57.125,55.415000000000006 L 56.84,55.22500000000001 Q 55.89,56.745000000000005 53.325,57.64750000000001 Q 50.760000000000005,58.55000000000001 47.72,58.55000000000001 Q 41.735,58.55000000000001 37.2225,55.8425 Q 32.71,53.135000000000005 30.145,48.385000000000005 Q 27.58,43.635000000000005 27.58,37.36500000000001 Q 27.58,30.62 30.43,25.585000000000004 Q 33.28,20.55 38.315,17.700000000000003 Q 43.35,14.850000000000001 49.905,14.850000000000001 Q 56.65,14.850000000000001 61.685,17.652500000000003 Q 66.72,20.455000000000002 69.57,25.4425 Q 72.42,30.430000000000003 72.42,36.985 Q 72.42,41.545 70.71000000000001,46.3425 Q 69.0,51.14 66.055,56.36500000000001 L 50.0,85.15 Z M 50.0,51.900000000000006 Q 56.175,51.900000000000006 60.0225,47.815 Q 63.87,43.730000000000004 63.87,37.175 Q 63.87,30.62 60.0225,26.535 Q 56.175,22.45 50.0,22.45 Q 43.825,22.45 39.9775,26.535 Q 36.13,30.62 36.13,37.175 Q 36.13,43.730000000000004 39.9775,47.815 Q 43.825,51.900000000000006 50.0,51.900000000000006 Z " fill="#e5e5e5"/>
</svg>