<svg viewBox="0 0 100 150">
    <!-- <rect x="0" y="0" width="100" height="150" fill="#e0e0e0"/> -->

    <path d="M 12.5,90 l 0,35 m 25,-35 l 0,35 m 25,-35 l 0,35 m 25,-35 l 0,35" fill="none" stroke="#181818" stroke-width="5"/>

    <rect x="2" y="2" width="96" height="96" fill="#2d2d2d" stroke="#181818" stroke-width="3" stroke-linejoin="round" rx="4"/>
    <rect x="10" y="10" width="80" height="80" fill="#121212" rx="2"/>

    <path d="M 29.67,85.15 L 29.67,77.265 L 52.754999999999995,52.565 Q 57.79,47.245000000000005 59.88,43.065 Q 61.97,38.885000000000005 61.97,34.894999999999996 Q 61.97,29.195000000000004 58.6925,25.8225 Q 55.415,22.45 49.81,22.45 Q 44.015,22.45 40.6425,25.9175 Q 37.269999999999996,29.385 37.269999999999996,35.275000000000006 L 28.72,35.275000000000006 Q 29.005,25.87 34.705,20.360000000000003 Q 40.405,14.850000000000001 49.81,14.850000000000001 Q 59.405,14.850000000000001 65.0575,20.265000000000004 Q 70.71000000000001,25.680000000000003 70.71000000000001,34.99000000000001 Q 70.71000000000001,39.93000000000001 68.0025,45.44 Q 65.295,50.95 58.74,57.790000000000006 L 40.025,77.36000000000001 L 71.565,77.36000000000001 L 71.565,85.15 Z " fill="#e5e5e5"/>
</svg>