<svg viewBox="0 0 100 150">
    <!-- <rect x="0" y="0" width="100" height="150" fill="#e0e0e0"/> -->

    <path d="M 12.5,90 l 0,35 m 25,-35 l 0,35 m 25,-35 l 0,35 m 25,-35 l 0,35" fill="none" stroke="#181818" stroke-width="5"/>

    <rect x="2" y="2" width="96" height="96" fill="#2d2d2d" stroke="#181818" stroke-width="3" stroke-linejoin="round" rx="4"/>
    <rect x="10" y="10" width="80" height="80" fill="#121212" rx="2"/>

    <path d="M 26.25,84.67500000000001 L 44.3,15.325000000000003 L 55.795,15.325000000000003 L 73.75,84.67500000000001 L 65.105,84.67500000000001 L 60.545,66.245 L 39.55,66.245 L 34.99,84.67500000000001 Z M 41.260000000000005,59.025 L 58.74,59.025 L 53.42,37.650000000000006 Q 51.9,31.570000000000007 51.045,27.485000000000007 Q 50.19,23.400000000000006 50.0,22.165000000000006 Q 49.81,23.400000000000006 48.955,27.485000000000007 Q 48.1,31.570000000000007 46.58,37.55500000000001 Z " fill="#e5e5e5"/>
</svg>