<svg viewBox="0 0 100 150">
    <!-- <rect x="0" y="0" width="100" height="150" fill="#e0e0e0"/> -->

    <path d="M 12.5,90 l 0,35 m 25,-35 l 0,35 m 25,-35 l 0,35 m 25,-35 l 0,35" fill="none" stroke="#181818" stroke-width="5"/>

    <rect x="2" y="2" width="96" height="96" fill="#2d2d2d" stroke="#181818" stroke-width="3" stroke-linejoin="round" rx="4"/>
    <rect x="10" y="10" width="80" height="80" fill="#121212" rx="2"/>

    <path d="M 50.095,85.15 Q 43.445,85.15 38.3625,82.3475 Q 33.28,79.54499999999999 30.43,74.5575 Q 27.58,69.57 27.58,63.01499999999999 Q 27.58,58.45499999999999 29.29,53.65749999999999 Q 31.0,48.86 33.945,43.635 L 50.0,14.849999999999994 L 59.5,14.849999999999994 L 42.4,44.584999999999994 L 42.685,44.775 Q 43.92,43.16 46.39,42.305 Q 48.86,41.449999999999996 51.805,41.449999999999996 Q 57.980000000000004,41.449999999999996 62.5875,44.1575 Q 67.195,46.864999999999995 69.8075,51.614999999999995 Q 72.42,56.365 72.42,62.635 Q 72.42,69.285 69.57,74.3675 Q 66.72,79.44999999999999 61.7325,82.29999999999998 Q 56.745,85.15 50.095,85.15 Z M 50.0,77.54999999999998 Q 56.175,77.54999999999998 60.0225,73.465 Q 63.87,69.38 63.87,62.824999999999996 Q 63.87,56.27 60.0225,52.184999999999995 Q 56.175,48.099999999999994 50.0,48.099999999999994 Q 43.825,48.099999999999994 39.9775,52.184999999999995 Q 36.13,56.27 36.13,62.824999999999996 Q 36.13,69.38 39.9775,73.465 Q 43.825,77.54999999999998 50.0,77.54999999999998 Z " fill="#e5e5e5"/>
</svg>