<svg viewBox="0 0 100 150">
    <!-- <rect x="0" y="0" width="100" height="150" fill="#e0e0e0"/> -->

    <path d="M 12.5,90 l 0,35 m 25,-35 l 0,35 m 25,-35 l 0,35 m 25,-35 l 0,35" fill="none" stroke="#181818" stroke-width="5"/>

    <rect x="2" y="2" width="96" height="96" fill="#2d2d2d" stroke="#181818" stroke-width="3" stroke-linejoin="round" rx="4"/>
    <rect x="10" y="10" width="80" height="80" fill="#121212" rx="2"/>

    <path d="M 50.760000000000005,85.625 Q 41.260000000000005,85.625 35.75,80.30499999999999 Q 30.240000000000002,74.985 30.240000000000002,65.675 L 30.240000000000002,34.325 Q 30.240000000000002,25.015000000000004 35.75,19.695 Q 41.260000000000005,14.375 50.760000000000005,14.375 Q 60.07,14.375 65.58,19.7425 Q 71.09,25.110000000000003 71.09,34.325 L 62.54,34.325 Q 62.54,28.435 59.4525,25.2525 Q 56.365,22.070000000000004 50.760000000000005,22.070000000000004 Q 45.155,22.070000000000004 41.9725,25.2525 Q 38.79,28.435 38.79,34.325 L 38.79,65.675 Q 38.79,71.565 41.9725,74.7475 Q 45.155,77.92999999999999 50.760000000000005,77.92999999999999 Q 56.365,77.92999999999999 59.4525,74.7475 Q 62.54,71.565 62.54,65.675 L 71.09,65.675 Q 71.09,74.89 65.58,80.2575 Q 60.07,85.625 50.760000000000005,85.625 Z " fill="#e5e5e5"/>
</svg>