<svg viewBox="0 0 100 150">
    <!-- <rect x="0" y="0" width="100" height="150" fill="#e0e0e0"/> -->

    <path d="M 12.5,90 l 0,35 m 25,-35 l 0,35 m 25,-35 l 0,35 m 25,-35 l 0,35" fill="none" stroke="#181818" stroke-width="5"/>

    <rect x="2" y="2" width="96" height="96" fill="#2d2d2d" stroke="#181818" stroke-width="3" stroke-linejoin="round" rx="4"/>
    <rect x="10" y="10" width="80" height="80" fill="#121212" rx="2"/>

    <path d="M 49.43,85.15 Q 39.835,85.15 34.230000000000004,79.7825 Q 28.625,74.41499999999999 28.625,65.19999999999999 L 37.175,65.19999999999999 Q 37.175,70.9 40.5,74.225 Q 43.825,77.54999999999998 49.525,77.54999999999998 Q 55.225,77.54999999999998 58.55,74.225 Q 61.875,70.9 61.875,65.19999999999999 L 61.875,60.92499999999999 Q 61.875,55.225 58.645,51.9 Q 55.415,48.574999999999996 49.905,48.574999999999996 L 31.0,48.574999999999996 L 31.0,14.849999999999994 L 67.955,14.849999999999994 L 67.955,22.639999999999993 L 38.980000000000004,22.639999999999993 L 39.17,40.785 L 50.379999999999995,40.785 Q 59.975,40.785 65.2,46.0575 Q 70.425,51.33 70.425,60.92499999999999 L 70.425,65.19999999999999 Q 70.425,74.41499999999999 64.77250000000001,79.7825 Q 59.12,85.15 49.43,85.15 Z " fill="#e5e5e5"/>
</svg>