<svg viewBox="0 0 100 150">
    <!-- <rect x="0" y="0" width="100" height="150" fill="#e0e0e0"/> -->

    <path d="M 12.5,90 l 0,35 m 25,-35 l 0,35 m 25,-35 l 0,35 m 25,-35 l 0,35" fill="none" stroke="#181818" stroke-width="5"/>

    <rect x="2" y="2" width="96" height="96" fill="#2d2d2d" stroke="#181818" stroke-width="3" stroke-linejoin="round" rx="4"/>
    <rect x="10" y="10" width="80" height="80" fill="#121212" rx="2"/>

    <path d="M 50.0,85.625 Q 40.405,85.625 34.7525,80.0675 Q 29.1,74.51 29.1,65.2 L 29.1,34.8 Q 29.1,25.49 34.7525,19.9325 Q 40.405,14.375 50.0,14.375 Q 59.595,14.375 65.2475,19.9325 Q 70.9,25.49 70.9,34.8 L 70.9,65.2 Q 70.9,71.375 68.33500000000001,75.9825 Q 65.77000000000001,80.59 61.0675,83.1075 Q 56.365,85.625 50.0,85.625 Z M 50.0,78.31 Q 55.7,78.31 59.167500000000004,74.6525 Q 62.635,70.995 62.635,65.2 L 62.635,34.8 Q 62.635,29.005 59.167500000000004,25.3475 Q 55.7,21.69 50.0,21.69 Q 44.3,21.69 40.832499999999996,25.3475 Q 37.365,29.005 37.365,34.8 L 37.365,65.2 Q 37.365,70.995 40.832499999999996,74.6525 Q 44.3,78.31 50.0,78.31 Z M 50.0,55.224999999999994 Q 47.435,55.224999999999994 45.8675,53.8 Q 44.3,52.375 44.3,49.715 Q 44.3,47.150000000000006 45.8675,45.77250000000001 Q 47.435,44.394999999999996 50.0,44.394999999999996 Q 52.565,44.394999999999996 54.1325,45.77250000000001 Q 55.7,47.150000000000006 55.7,49.715 Q 55.7,52.375 54.1325,53.8 Q 52.565,55.224999999999994 50.0,55.224999999999994 Z " fill="#e5e5e5"/>
</svg>