<svg viewBox="0 0 100 150">
    <!-- <rect x="0" y="0" width="100" height="150" fill="#e0e0e0"/> -->

    <path d="M 12.5,90 l 0,35 m 25,-35 l 0,35 m 25,-35 l 0,35 m 25,-35 l 0,35" fill="none" stroke="#181818" stroke-width="5"/>

    <rect x="2" y="2" width="96" height="96" fill="#2d2d2d" stroke="#181818" stroke-width="3" stroke-linejoin="round" rx="4"/>
    <rect x="10" y="10" width="80" height="80" fill="#121212" rx="2"/>

    <path d="M 30.240000000000002,84.67500000000001 L 30.240000000000002,15.325000000000003 L 48.195,15.325000000000003 Q 54.94,15.325000000000003 59.8325,17.890000000000004 Q 64.725,20.455000000000005 67.4325,25.110000000000007 Q 70.14,29.765000000000008 70.14,36.13 L 70.14,63.775 Q 70.14,70.14000000000001 67.4325,74.8425 Q 64.725,79.54500000000002 59.8325,82.11000000000001 Q 54.94,84.67500000000001 48.195,84.67500000000001 Z M 38.79,77.07500000000002 L 48.195,77.07500000000002 Q 54.465,77.07500000000002 58.0275,73.56 Q 61.59,70.04500000000002 61.59,63.775 L 61.59,36.13 Q 61.59,29.955000000000005 58.0275,26.440000000000005 Q 54.465,22.925000000000004 48.195,22.925000000000004 L 38.79,22.925000000000004 Z " fill="#e5e5e5"/>
</svg>