<svg viewBox="0 0 150 100">
    <!-- <rect x="0" y="0" width="100" height="150" fill="#e0e0e0"/> -->

    <path d="M 25,12.5 l 35,0 m -35,25 l 35,0 m -35,25 l 35,0 m -35,25 l 35,0" fill="none" stroke="#181818" stroke-width="5"/>

    <rect x="52" y="2" width="96" height="96" fill="#2d2d2d" stroke="#181818" stroke-width="3" stroke-linejoin="round" rx="4"/>
    <rect x="60" y="10" width="80" height="80" fill="#121212" rx="2"/>

    <path d="M 80.24,84.67500000000001 L 80.24,15.325000000000003 L 98.195,15.325000000000003 Q 104.94,15.325000000000003 109.83250000000001,17.890000000000004 Q 114.725,20.455000000000005 117.4325,25.110000000000007 Q 120.14,29.765000000000008 120.14,36.13 L 120.14,63.775 Q 120.14,70.14000000000001 117.4325,74.8425 Q 114.725,79.54500000000002 109.83250000000001,82.11000000000001 Q 104.94,84.67500000000001 98.195,84.67500000000001 Z M 88.78999999999999,77.07500000000002 L 98.195,77.07500000000002 Q 104.465,77.07500000000002 108.0275,73.56 Q 111.59,70.04500000000002 111.59,63.775 L 111.59,36.13 Q 111.59,29.955000000000005 108.0275,26.440000000000005 Q 104.465,22.925000000000004 98.195,22.925000000000004 L 88.78999999999999,22.925000000000004 Z " fill="#e5e5e5"/>
</svg>