<svg viewBox="0 0 150 100">
    <!-- <rect x="0" y="0" width="100" height="150" fill="#e0e0e0"/> -->

    <path d="M 25,12.5 l 35,0 m -35,25 l 35,0 m -35,25 l 35,0 m -35,25 l 35,0" fill="none" stroke="#181818" stroke-width="5"/>

    <rect x="52" y="2" width="96" height="96" fill="#2d2d2d" stroke="#181818" stroke-width="3" stroke-linejoin="round" rx="4"/>
    <rect x="60" y="10" width="80" height="80" fill="#121212" rx="2"/>

    <path d="M 100.0,85.625 Q 93.445,85.625 88.41,83.06 Q 83.375,80.495 80.5725,75.8875 Q 77.77,71.28 77.77,65.295 Q 77.77,58.739999999999995 81.52250000000001,53.989999999999995 Q 85.275,49.239999999999995 91.545,48.19500000000001 L 91.545,47.91 Q 86.13,46.675 82.9,42.447500000000005 Q 79.67,38.22 79.67,32.71000000000001 Q 79.67,27.294999999999998 82.235,23.162499999999998 Q 84.8,19.03 89.4075,16.7025 Q 94.015,14.375 100.0,14.375 Q 106.08,14.375 110.64,16.7025 Q 115.2,19.03 117.765,23.162499999999998 Q 120.33,27.294999999999998 120.33,32.71000000000001 Q 120.33,38.22 117.1,42.447500000000005 Q 113.87,46.675 108.455,47.91 L 108.455,48.19500000000001 Q 114.725,49.239999999999995 118.47749999999999,53.989999999999995 Q 122.23,58.739999999999995 122.23,65.295 Q 122.23,71.28 119.42750000000001,75.8875 Q 116.625,80.495 111.6375,83.06 Q 106.65,85.625 100.0,85.625 Z M 100.0,44.58500000000001 Q 105.32,44.58500000000001 108.55,41.45 Q 111.78,38.315 111.78,33.28 Q 111.78,28.245 108.55,25.110000000000003 Q 105.32,21.974999999999998 100.0,21.974999999999998 Q 94.775,21.974999999999998 91.4975,25.110000000000003 Q 88.22,28.245 88.22,33.28 Q 88.22,38.315 91.4975,41.45 Q 94.775,44.58500000000001 100.0,44.58500000000001 Z M 100.0,77.92999999999999 Q 106.08,77.92999999999999 109.88,74.36749999999999 Q 113.68,70.80499999999999 113.68,65.105 Q 113.68,59.31 109.88,55.7475 Q 106.08,52.185 100.0,52.185 Q 93.92,52.185 90.12,55.7475 Q 86.32,59.31 86.32,65.105 Q 86.32,70.80499999999999 90.12,74.36749999999999 Q 93.92,77.92999999999999 100.0,77.92999999999999 Z " fill="#e5e5e5"/>
</svg>