<svg viewBox="0 0 150 100">
    <!-- <rect x="0" y="0" width="100" height="150" fill="#e0e0e0"/> -->

    <path d="M 25,12.5 l 35,0 m -35,25 l 35,0 m -35,25 l 35,0 m -35,25 l 35,0" fill="none" stroke="#181818" stroke-width="5"/>

    <rect x="52" y="2" width="96" height="96" fill="#2d2d2d" stroke="#181818" stroke-width="3" stroke-linejoin="round" rx="4"/>
    <rect x="60" y="10" width="80" height="80" fill="#121212" rx="2"/>

    <path d="M 76.25,84.67500000000001 L 94.3,15.325000000000003 L 105.795,15.325000000000003 L 123.75,84.67500000000001 L 115.105,84.67500000000001 L 110.545,66.245 L 89.55,66.245 L 84.99,84.67500000000001 Z M 91.26,59.025 L 108.74000000000001,59.025 L 103.42,37.650000000000006 Q 101.9,31.570000000000007 101.045,27.485000000000007 Q 100.19,23.400000000000006 100.0,22.165000000000006 Q 99.81,23.400000000000006 98.955,27.485000000000007 Q 98.1,31.570000000000007 96.58,37.55500000000001 Z " fill="#e5e5e5"/>
</svg>