<svg viewBox="0 0 150 100">
    <!-- <rect x="0" y="0" width="100" height="150" fill="#e0e0e0"/> -->

    <path d="M 25,12.5 l 35,0 m -35,25 l 35,0 m -35,25 l 35,0 m -35,25 l 35,0" fill="none" stroke="#181818" stroke-width="5"/>

    <rect x="52" y="2" width="96" height="96" fill="#2d2d2d" stroke="#181818" stroke-width="3" stroke-linejoin="round" rx="4"/>
    <rect x="60" y="10" width="80" height="80" fill="#121212" rx="2"/>

    <path d="M 100.0,85.625 Q 90.405,85.625 84.7525,80.0675 Q 79.1,74.51 79.1,65.2 L 79.1,34.8 Q 79.1,25.49 84.7525,19.9325 Q 90.405,14.375 100.0,14.375 Q 109.595,14.375 115.2475,19.9325 Q 120.9,25.49 120.9,34.8 L 120.9,65.2 Q 120.9,71.375 118.33500000000001,75.9825 Q 115.77000000000001,80.59 111.0675,83.1075 Q 106.36500000000001,85.625 100.0,85.625 Z M 100.0,78.31 Q 105.7,78.31 109.1675,74.6525 Q 112.63499999999999,70.995 112.63499999999999,65.2 L 112.63499999999999,34.8 Q 112.63499999999999,29.005 109.1675,25.3475 Q 105.7,21.69 100.0,21.69 Q 94.3,21.69 90.8325,25.3475 Q 87.365,29.005 87.365,34.8 L 87.365,65.2 Q 87.365,70.995 90.8325,74.6525 Q 94.3,78.31 100.0,78.31 Z M 100.0,55.224999999999994 Q 97.435,55.224999999999994 95.8675,53.8 Q 94.3,52.375 94.3,49.715 Q 94.3,47.150000000000006 95.8675,45.77250000000001 Q 97.435,44.394999999999996 100.0,44.394999999999996 Q 102.565,44.394999999999996 104.1325,45.77250000000001 Q 105.7,47.150000000000006 105.7,49.715 Q 105.7,52.375 104.1325,53.8 Q 102.565,55.224999999999994 100.0,55.224999999999994 Z " fill="#e5e5e5"/>
</svg>