<svg viewBox="0 0 150 100">
    <!-- <rect x="0" y="0" width="100" height="150" fill="#e0e0e0"/> -->

    <path d="M 25,12.5 l 35,0 m -35,25 l 35,0 m -35,25 l 35,0 m -35,25 l 35,0" fill="none" stroke="#181818" stroke-width="5"/>

    <rect x="52" y="2" width="96" height="96" fill="#2d2d2d" stroke="#181818" stroke-width="3" stroke-linejoin="round" rx="4"/>
    <rect x="60" y="10" width="80" height="80" fill="#121212" rx="2"/>

    <path d="M 80.33500000000001,84.67500000000001 L 80.33500000000001,15.325000000000003 L 100.0,15.325000000000003 Q 109.5,15.325000000000003 114.8675,20.075000000000003 Q 120.235,24.825000000000003 120.235,33.28000000000001 Q 120.235,38.6 116.8625,42.87500000000001 Q 113.49000000000001,47.150000000000006 108.075,48.19500000000001 L 108.075,48.480000000000004 Q 112.16,48.955000000000005 115.2475,51.330000000000005 Q 118.33500000000001,53.705000000000005 120.0925,57.362500000000004 Q 121.85,61.02 121.85,65.39000000000001 Q 121.85,74.32 116.3875,79.4975 Q 110.925,84.67500000000001 101.425,84.67500000000001 Z M 88.695,44.870000000000005 L 99.905,44.870000000000005 Q 105.41499999999999,44.870000000000005 108.5975,41.925000000000004 Q 111.78,38.980000000000004 111.78,33.94500000000001 Q 111.78,28.910000000000004 108.64500000000001,25.965000000000003 Q 105.50999999999999,23.020000000000003 100.0,23.020000000000003 L 88.695,23.020000000000003 Z M 88.695,76.98000000000002 L 100.475,76.98000000000002 Q 106.46000000000001,76.98000000000002 109.92750000000001,73.79750000000001 Q 113.39500000000001,70.61500000000001 113.39500000000001,65.10500000000002 Q 113.39500000000001,59.40500000000001 109.92750000000001,55.84250000000001 Q 106.46000000000001,52.28000000000001 100.475,52.28000000000001 L 88.695,52.28000000000001 Z " fill="#e5e5e5"/>
</svg>