<svg viewBox="0 0 150 100">
    <!-- <rect x="0" y="0" width="100" height="150" fill="#e0e0e0"/> -->

    <path d="M 25,12.5 l 35,0 m -35,25 l 35,0 m -35,25 l 35,0 m -35,25 l 35,0" fill="none" stroke="#181818" stroke-width="5"/>

    <rect x="52" y="2" width="96" height="96" fill="#2d2d2d" stroke="#181818" stroke-width="3" stroke-linejoin="round" rx="4"/>
    <rect x="60" y="10" width="80" height="80" fill="#121212" rx="2"/>

    <path d="M 100.76,85.625 Q 91.26,85.625 85.75,80.30499999999999 Q 80.24,74.985 80.24,65.675 L 80.24,34.325 Q 80.24,25.015000000000004 85.75,19.695 Q 91.26,14.375 100.76,14.375 Q 110.07,14.375 115.58,19.7425 Q 121.09,25.110000000000003 121.09,34.325 L 112.53999999999999,34.325 Q 112.53999999999999,28.435 109.4525,25.2525 Q 106.36500000000001,22.070000000000004 100.76,22.070000000000004 Q 95.155,22.070000000000004 91.9725,25.2525 Q 88.78999999999999,28.435 88.78999999999999,34.325 L 88.78999999999999,65.675 Q 88.78999999999999,71.565 91.9725,74.7475 Q 95.155,77.92999999999999 100.76,77.92999999999999 Q 106.36500000000001,77.92999999999999 109.4525,74.7475 Q 112.53999999999999,71.565 112.53999999999999,65.675 L 121.09,65.675 Q 121.09,74.89 115.58,80.2575 Q 110.07,85.625 100.76,85.625 Z " fill="#e5e5e5"/>
</svg>