<svg viewBox="0 0 150 100">
    <!-- <rect x="0" y="0" width="100" height="150" fill="#e0e0e0"/> -->

    <path d="M 25,12.5 l 35,0 m -35,25 l 35,0 m -35,25 l 35,0 m -35,25 l 35,0" fill="none" stroke="#181818" stroke-width="5"/>

    <rect x="52" y="2" width="96" height="96" fill="#2d2d2d" stroke="#181818" stroke-width="3" stroke-linejoin="round" rx="4"/>
    <rect x="60" y="10" width="80" height="80" fill="#121212" rx="2"/>

    <path d="M 90.025,85.15 L 107.125,55.415000000000006 L 106.84,55.22500000000001 Q 105.89,56.745000000000005 103.325,57.64750000000001 Q 100.76,58.55000000000001 97.72,58.55000000000001 Q 91.735,58.55000000000001 87.2225,55.8425 Q 82.71000000000001,53.135000000000005 80.145,48.385000000000005 Q 77.58,43.635000000000005 77.58,37.36500000000001 Q 77.58,30.62 80.43,25.585000000000004 Q 83.28,20.55 88.315,17.700000000000003 Q 93.35,14.850000000000001 99.905,14.850000000000001 Q 106.65,14.850000000000001 111.685,17.652500000000003 Q 116.72,20.455000000000002 119.57,25.4425 Q 122.42,30.430000000000003 122.42,36.985 Q 122.42,41.545 120.71000000000001,46.3425 Q 119.0,51.14 116.055,56.36500000000001 L 100.0,85.15 Z M 100.0,51.900000000000006 Q 106.175,51.900000000000006 110.02250000000001,47.815 Q 113.87,43.730000000000004 113.87,37.175 Q 113.87,30.62 110.02250000000001,26.535 Q 106.175,22.45 100.0,22.45 Q 93.825,22.45 89.97749999999999,26.535 Q 86.13,30.62 86.13,37.175 Q 86.13,43.730000000000004 89.97749999999999,47.815 Q 93.825,51.900000000000006 100.0,51.900000000000006 Z " fill="#e5e5e5"/>
</svg>