<svg viewBox="0 0 150 100">
    <!-- <rect x="0" y="0" width="100" height="150" fill="#e0e0e0"/> -->

    <path d="M 25,12.5 l 35,0 m -35,25 l 35,0 m -35,25 l 35,0 m -35,25 l 35,0" fill="none" stroke="#181818" stroke-width="5"/>

    <rect x="52" y="2" width="96" height="96" fill="#2d2d2d" stroke="#181818" stroke-width="3" stroke-linejoin="round" rx="4"/>
    <rect x="60" y="10" width="80" height="80" fill="#121212" rx="2"/>

    <path d="M 100.095,85.15 Q 93.445,85.15 88.3625,82.3475 Q 83.28,79.54499999999999 80.43,74.5575 Q 77.58,69.57 77.58,63.01499999999999 Q 77.58,58.45499999999999 79.29,53.65749999999999 Q 81.0,48.86 83.945,43.635 L 100.0,14.849999999999994 L 109.5,14.849999999999994 L 92.4,44.584999999999994 L 92.685,44.775 Q 93.92,43.16 96.39,42.305 Q 98.86,41.449999999999996 101.805,41.449999999999996 Q 107.98,41.449999999999996 112.5875,44.1575 Q 117.195,46.864999999999995 119.8075,51.614999999999995 Q 122.42,56.365 122.42,62.635 Q 122.42,69.285 119.57,74.3675 Q 116.72,79.44999999999999 111.7325,82.29999999999998 Q 106.745,85.15 100.095,85.15 Z M 100.0,77.54999999999998 Q 106.175,77.54999999999998 110.02250000000001,73.465 Q 113.87,69.38 113.87,62.824999999999996 Q 113.87,56.27 110.02250000000001,52.184999999999995 Q 106.175,48.099999999999994 100.0,48.099999999999994 Q 93.825,48.099999999999994 89.97749999999999,52.184999999999995 Q 86.13,56.27 86.13,62.824999999999996 Q 86.13,69.38 89.97749999999999,73.465 Q 93.825,77.54999999999998 100.0,77.54999999999998 Z " fill="#e5e5e5"/>
</svg>