<svg viewBox="0 0 150 100">
    <!-- <rect x="0" y="0" width="100" height="150" fill="#e0e0e0"/> -->

    <path d="M 25,12.5 l 35,0 m -35,25 l 35,0 m -35,25 l 35,0 m -35,25 l 35,0" fill="none" stroke="#181818" stroke-width="5"/>

    <rect x="52" y="2" width="96" height="96" fill="#2d2d2d" stroke="#181818" stroke-width="3" stroke-linejoin="round" rx="4"/>
    <rect x="60" y="10" width="80" height="80" fill="#121212" rx="2"/>

    <path d="M 79.67,85.15 L 79.67,77.265 L 102.755,52.565 Q 107.78999999999999,47.245000000000005 109.88,43.065 Q 111.97,38.885000000000005 111.97,34.894999999999996 Q 111.97,29.195000000000004 108.6925,25.8225 Q 105.41499999999999,22.45 99.81,22.45 Q 94.015,22.45 90.6425,25.9175 Q 87.27,29.385 87.27,35.275000000000006 L 78.72,35.275000000000006 Q 79.005,25.87 84.705,20.360000000000003 Q 90.405,14.850000000000001 99.81,14.850000000000001 Q 109.405,14.850000000000001 115.0575,20.265000000000004 Q 120.71000000000001,25.680000000000003 120.71000000000001,34.99000000000001 Q 120.71000000000001,39.93000000000001 118.0025,45.44 Q 115.295,50.95 108.74000000000001,57.790000000000006 L 90.025,77.36000000000001 L 121.565,77.36000000000001 L 121.565,85.15 Z " fill="#e5e5e5"/>
</svg>