<svg viewBox="0 0 150 100">
    <!-- <rect x="0" y="0" width="100" height="150" fill="#e0e0e0"/> -->

    <path d="M 25,12.5 l 35,0 m -35,25 l 35,0 m -35,25 l 35,0 m -35,25 l 35,0" fill="none" stroke="#181818" stroke-width="5"/>

    <rect x="52" y="2" width="96" height="96" fill="#2d2d2d" stroke="#181818" stroke-width="3" stroke-linejoin="round" rx="4"/>
    <rect x="60" y="10" width="80" height="80" fill="#121212" rx="2"/>

    <path d="M 99.43,85.15 Q 89.83500000000001,85.15 84.23,79.7825 Q 78.625,74.41499999999999 78.625,65.19999999999999 L 87.175,65.19999999999999 Q 87.175,70.9 90.5,74.225 Q 93.825,77.54999999999998 99.525,77.54999999999998 Q 105.225,77.54999999999998 108.55,74.225 Q 111.875,70.9 111.875,65.19999999999999 L 111.875,60.92499999999999 Q 111.875,55.225 108.64500000000001,51.9 Q 105.41499999999999,48.574999999999996 99.905,48.574999999999996 L 81.0,48.574999999999996 L 81.0,14.849999999999994 L 117.955,14.849999999999994 L 117.955,22.639999999999993 L 88.98,22.639999999999993 L 89.17,40.785 L 100.38,40.785 Q 109.975,40.785 115.2,46.0575 Q 120.425,51.33 120.425,60.92499999999999 L 120.425,65.19999999999999 Q 120.425,74.41499999999999 114.77250000000001,79.7825 Q 109.12,85.15 99.43,85.15 Z " fill="#e5e5e5"/>
</svg>