<svg viewBox="0 0 150 100">
    <!-- <rect x="0" y="0" width="100" height="150" fill="#e0e0e0"/> -->

    <path d="M 25,12.5 l 35,0 m -35,25 l 35,0 m -35,25 l 35,0 m -35,25 l 35,0" fill="none" stroke="#181818" stroke-width="5"/>

    <rect x="52" y="2" width="96" height="96" fill="#2d2d2d" stroke="#181818" stroke-width="3" stroke-linejoin="round" rx="4"/>
    <rect x="60" y="10" width="80" height="80" fill="#121212" rx="2"/>

    <path d="M 98.955,85.15 Q 89.36,85.15 83.755,79.7825 Q 78.15,74.41499999999999 78.15,65.19999999999999 L 86.7,65.19999999999999 Q 86.7,70.9 90.025,74.225 Q 93.35,77.54999999999998 99.05,77.54999999999998 Q 104.75,77.54999999999998 108.075,74.225 Q 111.4,70.9 111.4,65.19999999999999 L 111.4,60.449999999999996 Q 111.4,54.74999999999999 108.075,51.425 Q 104.75,48.099999999999994 99.05,48.099999999999994 L 91.545,48.099999999999994 L 91.545,40.69 L 108.55,22.639999999999993 L 80.05,22.639999999999993 L 80.05,14.849999999999994 L 118.24000000000001,14.849999999999994 L 118.24000000000001,22.83 L 101.52,40.595 Q 110.07,41.26 115.00999999999999,46.5325 Q 119.95,51.805 119.95,60.449999999999996 L 119.95,65.19999999999999 Q 119.95,74.41499999999999 114.2975,79.7825 Q 108.64500000000001,85.15 98.955,85.15 Z " fill="#e5e5e5"/>
</svg>